<?xml version="1.0" encoding="UTF-8" standalone="no"?>
<!DOCTYPE svg PUBLIC "-//W3C//DTD SVG 1.1//EN"
 "http://www.w3.org/Graphics/SVG/1.1/DTD/svg11.dtd">
<!-- Generated by graphviz version 2.28.0 (20110727.1655)
 -->
<!-- Title: test_diagram Pages: 1 -->
<svg width="500pt" height="164pt"
 viewBox="0.00 0.00 500.00 164.00" xmlns="http://www.w3.org/2000/svg" xmlns:xlink="http://www.w3.org/1999/xlink">
<g id="graph1" class="graph" transform="scale(1 1) rotate(0) translate(4 160)">
<title>test_diagram</title>
<polygon fill="white" stroke="white" points="-4,5 -4,-160 497,-160 497,5 -4,5"/>
<g id="graph2" class="cluster"><title>cluster_grey</title>
<polygon fill="lightgrey" stroke="lightgrey" points="350,-19 350,-87 484,-87 484,-19 350,-19"/>
<text text-anchor="middle" x="417" y="-70.4" font-family="Times,serif" font-size="14.00">some cluster</text>
</g>
<!-- a -->
<g id="node1" class="node"><title>a</title>
<ellipse fill="none" stroke="blue" cx="236" cy="-137" rx="16.4567" ry="19.1842"/>
<text text-anchor="middle" x="236" y="-132.1" font-family="Times,serif" font-size="16.00" fill="red">a</text>
</g>
<!-- b -->
<g id="node2" class="node"><title>b</title>
<polygon fill="none" stroke="black" points="24.25,-54.5 -0.25,-54.5 -0.25,-27.5 24.25,-27.5 24.25,-54.5"/>
<text text-anchor="middle" x="12" y="-36.1" font-family="Times,serif" font-size="16.00">b</text>
</g>
<!-- a&#45;&gt;b -->
<g id="edge3" class="edge"><title>a&#45;&gt;b</title>
<path fill="none" stroke="green" d="M219.306,-136.482C181.902,-136.689 90.2544,-132.215 34,-87 26.7718,-81.1903 21.748,-72.4121 18.3464,-64.1467"/>
<polygon fill="green" stroke="green" points="21.5897,-62.8195 14.9626,-54.5532 14.9883,-65.148 21.5897,-62.8195"/>
</g>
<!-- c -->
<g id="node3" class="node"><title>c</title>
<polygon fill="none" stroke="black" points="87,-68 43,-41 87,-14 131,-41 87,-68"/>
<text text-anchor="middle" x="87" y="-36.1" font-family="Times,serif" font-size="16.00">blah</text>
</g>
<!-- a&#45;&gt;c -->
<g id="edge5" class="edge"><title>a&#45;&gt;c</title>
<path fill="none" stroke="red" d="M213.345,-126.25C193.354,-117.229 163.78,-102.851 140,-87 130.157,-80.4389 120.083,-72.3066 111.398,-64.7675"/>
<ellipse fill="red" stroke="red" cx="217.109" cy="-127.924" rx="4.00002" ry="4.00002"/>
<polygon fill="none" stroke="red" points="113.66,-62.0952 103.858,-58.0728 109.012,-67.3296 113.66,-62.0952"/>
</g>
<!-- d -->
<g id="node4" class="node"><title>d</title>
<polyline fill="none" stroke="black" points="161,-0.5 183,-0.5 "/>
<path fill="none" stroke="black" d="M183,-0.5C189,-0.5 195,-6.5 195,-12.5"/>
<polyline fill="none" stroke="black" points="195,-12.5 195,-69.5 "/>
<path fill="none" stroke="black" d="M195,-69.5C195,-75.5 189,-81.5 183,-81.5"/>
<polyline fill="none" stroke="black" points="183,-81.5 161,-81.5 "/>
<path fill="none" stroke="black" d="M161,-81.5C155,-81.5 149,-75.5 149,-69.5"/>
<polyline fill="none" stroke="black" points="149,-69.5 149,-12.5 "/>
<path fill="none" stroke="black" d="M149,-12.5C149,-6.5 155,-0.5 161,-0.5"/>
<text text-anchor="middle" x="172" y="-63.1" font-family="Times,serif" font-size="16.00">Title</text>
<polyline fill="none" stroke="black" points="149,-54.5 195,-54.5 "/>
<text text-anchor="middle" x="172" y="-36.1" font-family="Times,serif" font-size="16.00">one</text>
<polyline fill="none" stroke="black" points="149,-27.5 195,-27.5 "/>
<text text-anchor="middle" x="172" y="-9.1" font-family="Times,serif" font-size="16.00">two</text>
</g>
<!-- a&#45;&gt;d -->
<g id="edge7" class="edge"><title>a&#45;&gt;d</title>
<path fill="none" stroke="red" d="M226,-121.312C219.252,-111.401 209.973,-97.7733 201.01,-84.6091"/>
<polygon fill="red" stroke="red" points="203.717,-82.3653 195.196,-76.0691 197.931,-86.3049 203.717,-82.3653"/>
</g>
<!-- e -->
<g id="node5" class="node"><title>e</title>
<polyline fill="none" stroke="black" points="222.5,-27.5 331.5,-27.5 "/>
<path fill="none" stroke="black" d="M331.5,-27.5C336,-27.5 340.5,-32 340.5,-36.5"/>
<polyline fill="none" stroke="black" points="340.5,-36.5 340.5,-45.5 "/>
<path fill="none" stroke="black" d="M340.5,-45.5C340.5,-50 336,-54.5 331.5,-54.5"/>
<polyline fill="none" stroke="black" points="331.5,-54.5 222.5,-54.5 "/>
<path fill="none" stroke="black" d="M222.5,-54.5C218,-54.5 213.5,-50 213.5,-45.5"/>
<polyline fill="none" stroke="black" points="213.5,-45.5 213.5,-36.5 "/>
<path fill="none" stroke="black" d="M213.5,-36.5C213.5,-32 218,-27.5 222.5,-27.5"/>
<text text-anchor="middle" x="236.5" y="-36.1" font-family="Times,serif" font-size="16.00">Title</text>
<polyline fill="none" stroke="black" points="259.5,-27.5 259.5,-54.5 "/>
<text text-anchor="middle" x="279.5" y="-36.1" font-family="Times,serif" font-size="16.00">one</text>
<polyline fill="none" stroke="black" points="299.5,-27.5 299.5,-54.5 "/>
<text text-anchor="middle" x="320" y="-36.1" font-family="Times,serif" font-size="16.00">two</text>
</g>
<!-- a&#45;&gt;e -->
<g id="edge9" class="edge"><title>a&#45;&gt;e:title</title>
<path fill="none" stroke="red" d="M236,-117.89C236,-104.209 236,-84.6824 236,-66.1501"/>
<polygon fill="red" stroke="red" points="239.5,-66 236,-56 232.5,-66 239.5,-66"/>
</g>
<!-- f -->
<g id="node7" class="node"><title>f</title>
<polygon fill="lightgrey" stroke="black" points="475.25,-54.5 448.75,-54.5 448.75,-27.5 475.25,-27.5 475.25,-54.5"/>
<text text-anchor="middle" x="462" y="-36.1" font-family="Times,serif" font-size="16.00">f</text>
</g>
<!-- a&#45;&gt;f -->
<g id="edge11" class="edge"><title>a&#45;&gt;f</title>
<path fill="none" stroke="red" d="M252.717,-136.436C290.185,-136.547 382.056,-131.89 439,-87 446.348,-81.2076 451.565,-72.4323 455.152,-64.1644"/>
<polygon fill="red" stroke="red" points="458.517,-65.1579 458.752,-54.5657 451.963,-62.6998 458.517,-65.1579"/>
</g>
<!-- g -->
<g id="node8" class="node"><title>g</title>
<polygon fill="lightgrey" stroke="black" points="430.25,-54.5 403.75,-54.5 403.75,-27.5 430.25,-27.5 430.25,-54.5"/>
<text text-anchor="middle" x="417" y="-36.1" font-family="Times,serif" font-size="16.00">g</text>
</g>
<!-- a&#45;&gt;g -->
<g id="edge13" class="edge"><title>a&#45;&gt;g</title>
<path fill="none" stroke="red" d="M252.777,-135C284.029,-132.314 351.808,-122.502 394,-87 401.064,-81.0562 406.206,-72.3965 409.814,-64.2575"/>
<polygon fill="red" stroke="red" points="413.127,-65.3945 413.478,-54.8055 406.6,-62.864 413.127,-65.3945"/>
</g>
<!-- h -->
<g id="node9" class="node"><title>h</title>
<polygon fill="lightgrey" stroke="black" points="385.25,-54.5 358.75,-54.5 358.75,-27.5 385.25,-27.5 385.25,-54.5"/>
<text text-anchor="middle" x="372" y="-36.1" font-family="Times,serif" font-size="16.00">h</text>
</g>
<!-- a&#45;&gt;h -->
<g id="edge15" class="edge"><title>a&#45;&gt;h</title>
<path fill="none" stroke="red" d="M252.562,-133.475C277.946,-128.768 326.517,-116.333 355,-87 360.987,-80.8344 364.908,-72.3543 367.456,-64.4167"/>
<polygon fill="red" stroke="red" points="370.896,-65.0977 370.073,-54.5348 364.129,-63.3052 370.896,-65.0977"/>
</g>
</g>
</svg>
